<svg width="30" height="30" viewBox="0 0 30 30" fill="none" xmlns="http://www.w3.org/2000/svg">
<path d="M18.7192 3.77349L19.919 1.609C19.9344 1.58123 19.9441 1.5507 19.9477 1.51916C19.9513 1.48761 19.9487 1.45567 19.9399 1.42514C19.9312 1.39462 19.9165 1.36613 19.8967 1.34128C19.877 1.31643 19.8525 1.29571 19.8247 1.28032C19.7687 1.24923 19.7025 1.24169 19.6409 1.25936C19.5793 1.27704 19.5272 1.31847 19.4961 1.37455L18.283 3.56303C17.248 3.10929 16.1301 2.87503 15 2.87503C13.8699 2.87503 12.7521 3.10929 11.7171 3.56303L10.504 1.37455C10.4729 1.31847 10.4208 1.27704 10.3591 1.25936C10.2975 1.24169 10.2314 1.24923 10.1753 1.28032C10.1192 1.31141 10.0778 1.3635 10.0601 1.42514C10.0424 1.48678 10.05 1.55292 10.0811 1.609L11.2809 3.7735C10.1388 4.33646 9.1738 5.20309 8.49176 6.27832C7.80972 7.35354 7.43698 8.59584 7.41442 9.86894H22.5857C22.5631 8.59584 22.1904 7.35354 21.5083 6.27831C20.8263 5.20308 19.8613 4.33645 18.7192 3.77349ZM11.4989 7.09299C11.3736 7.09299 11.2511 7.05583 11.147 6.98622C11.0428 6.91662 10.9616 6.81768 10.9136 6.70192C10.8657 6.58616 10.8531 6.45879 10.8776 6.3359C10.902 6.21301 10.9624 6.10013 11.051 6.01154C11.1396 5.92294 11.2524 5.8626 11.3753 5.83816C11.4982 5.81372 11.6256 5.82626 11.7413 5.87421C11.8571 5.92216 11.956 6.00336 12.0256 6.10753C12.0953 6.21171 12.1324 6.33419 12.1324 6.45949C12.1322 6.62745 12.0654 6.78847 11.9467 6.90723C11.8279 7.026 11.6669 7.0928 11.4989 7.09299ZM18.5011 7.09299C18.3758 7.09299 18.2534 7.05583 18.1492 6.98622C18.045 6.91662 17.9638 6.81768 17.9159 6.70192C17.8679 6.58616 17.8554 6.45879 17.8798 6.3359C17.9042 6.21301 17.9646 6.10013 18.0532 6.01154C18.1418 5.92294 18.2547 5.8626 18.3775 5.83816C18.5004 5.81372 18.6278 5.82626 18.7436 5.87421C18.8593 5.92216 18.9583 6.00336 19.0279 6.10753C19.0975 6.21171 19.1346 6.33419 19.1346 6.45949C19.1344 6.62745 19.0676 6.78847 18.9489 6.90723C18.8301 7.026 18.6691 7.0928 18.5011 7.09299ZM7.41431 21.4642C7.41431 21.9506 7.60752 22.4171 7.95145 22.761C8.29537 23.1049 8.76184 23.2982 9.24822 23.2982H10.4652V27.0493C10.4646 27.273 10.5082 27.4947 10.5933 27.7015C10.6785 27.9084 10.8037 28.0964 10.9617 28.2548C11.1196 28.4132 11.3073 28.5389 11.5139 28.6246C11.7206 28.7104 11.9421 28.7545 12.1658 28.7545C12.3895 28.7545 12.611 28.7104 12.8176 28.6246C13.0243 28.5389 13.2119 28.4132 13.3699 28.2548C13.5279 28.0964 13.653 27.9084 13.7382 27.7015C13.8234 27.4947 13.867 27.273 13.8664 27.0493V23.2982H16.1337V27.0493C16.1331 27.273 16.1766 27.4947 16.2618 27.7015C16.347 27.9084 16.4722 28.0964 16.6301 28.2548C16.7881 28.4132 16.9758 28.5389 17.1824 28.6246C17.389 28.7104 17.6105 28.7545 17.8342 28.7545C18.058 28.7545 18.2795 28.7104 18.4861 28.6246C18.6927 28.5389 18.8804 28.4132 19.0384 28.2548C19.1963 28.0964 19.3215 27.9084 19.4067 27.7015C19.4919 27.4947 19.5354 27.273 19.5348 27.0493V23.2982H20.7519C21.2383 23.2982 21.7047 23.1049 22.0486 22.761C22.3926 22.4171 22.5858 21.9506 22.5858 21.4642V10.4691H7.41431V21.4642ZM5.08021 10.1773C4.62935 10.1778 4.1971 10.3571 3.87829 10.676C3.55948 10.9948 3.38015 11.427 3.37964 11.8779V18.9635C3.37904 19.1872 3.42258 19.4088 3.50777 19.6156C3.59296 19.8225 3.71812 20.0105 3.8761 20.1689C4.03407 20.3273 4.22174 20.453 4.42837 20.5387C4.63499 20.6245 4.8565 20.6686 5.08021 20.6686C5.30392 20.6686 5.52544 20.6245 5.73206 20.5387C5.93868 20.453 6.12636 20.3273 6.28433 20.1689C6.4423 20.0105 6.56747 19.8225 6.65266 19.6156C6.73785 19.4088 6.78139 19.1872 6.78078 18.9635V11.8779C6.78027 11.427 6.60094 10.9948 6.28213 10.676C5.96332 10.3571 5.53107 10.1778 5.08021 10.1773ZM24.9198 10.1773C24.469 10.1778 24.0367 10.3571 23.7179 10.676C23.3991 10.9948 23.2198 11.427 23.2193 11.8779V18.9635C23.2186 19.1872 23.2622 19.4088 23.3474 19.6156C23.4326 19.8225 23.5577 20.0105 23.7157 20.1689C23.8737 20.3273 24.0614 20.453 24.268 20.5387C24.4746 20.6245 24.6961 20.6686 24.9198 20.6686C25.1435 20.6686 25.365 20.6245 25.5717 20.5387C25.7783 20.453 25.966 20.3273 26.1239 20.1689C26.2819 20.0105 26.4071 19.8225 26.4923 19.6156C26.5775 19.4088 26.621 19.1872 26.6204 18.9635V11.8779C26.6199 11.427 26.4406 10.9948 26.1217 10.676C25.8029 10.3571 25.3707 10.1778 24.9198 10.1773Z" fill="white"/>
</svg>
