<svg width="48" height="48" viewBox="0 0 48 48" fill="none" xmlns="http://www.w3.org/2000/svg">
<path d="M21.6269 31.5H19.2425L18.2266 28.4874H12.4004L11.3844 31.5H9L14.4115 16.5H16.2154L21.6269 31.5ZM17.6046 26.5492L15.3653 19.8919L13.0638 26.5492H17.6046Z" fill="#FAFAFA"/>
<path d="M34.0465 21.0506C34.0465 22.3708 33.6111 23.4593 32.7403 24.316C31.8833 25.1728 30.7429 25.6011 29.3192 25.6011H25.9603V31.5H23.7211V16.5H29.3192C30.7429 16.5 31.8833 16.9284 32.7403 17.7851C33.6111 18.6419 34.0465 19.7303 34.0465 21.0506ZM31.8073 21.0506C31.8073 20.264 31.5654 19.6531 31.0816 19.2177C30.6116 18.7683 29.9827 18.5435 29.1948 18.5435H25.9603V23.5365H29.1948C29.9827 23.5365 30.6116 23.3188 31.0816 22.8834C31.5654 22.434 31.8073 21.823 31.8073 21.0506Z" fill="#FAFAFA"/>
<path d="M39 31.5H36.7607V16.5H39V31.5Z" fill="#FAFAFA"/>
</svg>
