<svg width="48" height="48" viewBox="0 0 48 48" fill="none" xmlns="http://www.w3.org/2000/svg">
<path d="M32.0454 24.6852C32.06 23.5545 32.3603 22.4458 32.9185 21.4624C33.4766 20.479 34.2745 19.6527 35.2378 19.0605C34.6258 18.1865 33.8185 17.4673 32.8799 16.9599C31.9414 16.4525 30.8975 16.1709 29.8311 16.1376C27.5563 15.8988 25.3509 17.4988 24.1917 17.4988C23.0101 17.4988 21.2253 16.1613 19.3034 16.2008C18.0603 16.241 16.8487 16.6025 15.7869 17.2501C14.725 17.8977 13.8489 18.8093 13.2441 19.8962C10.6242 24.4322 12.5784 31.0985 15.0881 34.7651C16.3437 36.5605 17.8112 38.566 19.7314 38.4949C21.6104 38.417 22.3122 37.2967 24.5803 37.2967C26.8273 37.2967 27.4857 38.4949 29.4449 38.4497C31.4611 38.4169 32.7315 36.6463 33.9431 34.8339C34.8452 33.5546 35.5394 32.1407 36 30.6446C34.8286 30.1491 33.829 29.3198 33.1257 28.2601C32.4225 27.2003 32.0468 25.957 32.0454 24.6852Z" fill="white"/>
<path d="M28.3511 13.7286C29.4505 12.4089 29.9921 10.7126 29.8609 9C28.1814 9.17641 26.6299 9.97912 25.5157 11.2482C24.971 11.8682 24.5537 12.5895 24.2879 13.3708C24.022 14.1521 23.9128 14.9782 23.9664 15.8018C24.8065 15.8104 25.6376 15.6283 26.3971 15.2692C27.1566 14.9101 27.8247 14.3834 28.3511 13.7286Z" fill="white"/>
</svg>
