<svg width="12" height="12" viewBox="0 0 12 12" fill="none" xmlns="http://www.w3.org/2000/svg">
<path d="M11.162 5.66851C11.1205 5.56166 11.0583 5.46404 10.979 5.38125L6.62105 1.02871C6.53978 0.947549 6.44331 0.883166 6.33713 0.83924C6.23095 0.795314 6.11715 0.772705 6.00222 0.772705C5.77012 0.772705 5.54752 0.864794 5.3834 1.02871C5.30213 1.10988 5.23767 1.20624 5.19369 1.31228C5.14971 1.41833 5.12707 1.53199 5.12707 1.64677C5.12707 1.87859 5.21927 2.10091 5.3834 2.26483L8.25963 5.1288H1.64429C1.41313 5.1288 1.19144 5.22051 1.02799 5.38377C0.864533 5.54702 0.772705 5.76844 0.772705 5.99931C0.772705 6.23018 0.864533 6.4516 1.02799 6.61485C1.19144 6.7781 1.41313 6.86981 1.64429 6.86981H8.25963L5.3834 9.73378C5.3017 9.81471 5.23686 9.91098 5.19261 10.0171C5.14837 10.1231 5.12558 10.2369 5.12558 10.3518C5.12558 10.4668 5.14837 10.5805 5.19261 10.6866C5.23686 10.7927 5.3017 10.889 5.3834 10.9699C5.46442 11.0515 5.56082 11.1163 5.66703 11.1604C5.77324 11.2046 5.88716 11.2274 6.00222 11.2274C6.11728 11.2274 6.2312 11.2046 6.33742 11.1604C6.44363 11.1163 6.54002 11.0515 6.62105 10.9699L10.979 6.61737C11.0583 6.53458 11.1205 6.43696 11.162 6.3301C11.2492 6.11817 11.2492 5.88045 11.162 5.66851Z" fill="black"/>
</svg>
