<svg width="12" height="12" viewBox="0 0 12 12" fill="none" xmlns="http://www.w3.org/2000/svg">
<path d="M11.1627 5.66827C11.1213 5.56141 11.0591 5.46379 10.9797 5.381L6.62178 1.02847C6.54052 0.947305 6.44404 0.882922 6.33786 0.838996C6.23168 0.79507 6.11788 0.772461 6.00296 0.772461C5.77085 0.772461 5.54825 0.86455 5.38413 1.02847C5.30286 1.10963 5.2384 1.20599 5.19442 1.31204C5.15044 1.41808 5.1278 1.53175 5.1278 1.64653C5.1278 1.87835 5.22001 2.10067 5.38413 2.26459L8.26036 5.12856H1.64502C1.41386 5.12856 1.19217 5.22027 1.02872 5.38352C0.865265 5.54677 0.773438 5.76819 0.773438 5.99906C0.773438 6.22994 0.865265 6.45135 1.02872 6.6146C1.19217 6.77786 1.41386 6.86957 1.64502 6.86957H8.26036L5.38413 9.73354C5.30244 9.81446 5.2376 9.91074 5.19335 10.0168C5.1491 10.1229 5.12632 10.2367 5.12632 10.3516C5.12632 10.4665 5.1491 10.5803 5.19335 10.6864C5.2376 10.7925 5.30244 10.8887 5.38413 10.9697C5.46515 11.0512 5.56155 11.116 5.66776 11.1602C5.77397 11.2044 5.8879 11.2272 6.00296 11.2272C6.11802 11.2272 6.23194 11.2044 6.33815 11.1602C6.44436 11.116 6.54076 11.0512 6.62178 10.9697L10.9797 6.61712C11.0591 6.53433 11.1213 6.43671 11.1627 6.32986C11.2499 6.11792 11.2499 5.88021 11.1627 5.66827Z" fill="black"/>
</svg>
