<svg width="48" height="48" viewBox="0 0 48 48" fill="none" xmlns="http://www.w3.org/2000/svg">
<rect width="48" height="48" rx="12" fill="none"/>
<rect x="6" y="6" width="36" height="36" rx="14" fill="#FF6900"/>
<path d="M28.3999 30.3127V21.2654C28.3999 19.2097 26.7339 17.543 24.6784 17.543H14.2173C14.1366 17.543 14.0713 17.6079 14.0713 17.6878V30.3126C14.0713 30.3925 14.1366 30.4572 14.2173 30.4572H17.0116C17.0923 30.4572 17.1575 30.3921 17.1575 30.3118V20.4028C17.1575 20.3224 17.2229 20.2571 17.3035 20.2571H23.3124C24.4408 20.2571 25.3558 21.1717 25.3558 22.3002V30.3115C25.3558 30.3919 25.4211 30.4568 25.5013 30.4568H28.2545C28.3345 30.4568 28.4 30.392 28.4 30.3123M22.7571 30.3118C22.7571 30.3922 22.6924 30.4572 22.6117 30.4572H19.8181C19.7374 30.4572 19.672 30.3921 19.672 30.3118V22.7185C19.672 22.6382 19.7374 22.5729 19.8181 22.5729H22.6117C22.6924 22.5729 22.7571 22.6382 22.7571 22.7185V30.3121V30.3118ZM33.9286 30.3118C33.9286 30.3922 33.8631 30.4572 33.7825 30.4572H30.9895C30.9086 30.4572 30.8428 30.3921 30.8428 30.3118V17.6891C30.8428 17.6084 30.9086 17.5432 30.9895 17.5432H33.7825C33.8632 17.5432 33.9286 17.6084 33.9286 17.6891V30.3118Z" fill="white"/>
</svg>
