<svg width="100" height="100" viewBox="0 0 100 100" fill="none" xmlns="http://www.w3.org/2000/svg">
<g clip-path="url(#clip0_531_34585)">
<path d="M91.2218 35.5555C91.2218 35.0033 90.7741 34.5555 90.2218 34.5555H9.77734C9.22506 34.5555 8.77734 35.0033 8.77734 35.5555V77.7778C8.77734 78.3301 9.22506 78.7778 9.77734 78.7778H90.2218C90.7741 78.7778 91.2218 78.3301 91.2218 77.7778V35.5555Z" fill="white" stroke="#202020" stroke-width="2" stroke-linecap="round" stroke-linejoin="round"/>
<path d="M91.2218 32.2222C91.2218 31.6699 90.7741 31.2222 90.2218 31.2222H9.77734C9.22506 31.2222 8.77734 31.6699 8.77734 32.2222V74.4444C8.77734 74.9967 9.22506 75.4444 9.77734 75.4444H90.2218C90.7741 75.4444 91.2218 74.9967 91.2218 74.4444V32.2222Z" fill="white" stroke="#202020" stroke-width="2" stroke-linecap="round" stroke-linejoin="round"/>
<path d="M91.2218 28.8888C91.2218 28.3365 90.7741 27.8888 90.2218 27.8888H9.77734C9.22506 27.8888 8.77734 28.3365 8.77734 28.8888V71.111C8.77734 71.6633 9.22506 72.111 9.77734 72.111H90.2218C90.7741 72.111 91.2218 71.6633 91.2218 71.111V28.8888Z" fill="white" stroke="#202020" stroke-width="2" stroke-linecap="round" stroke-linejoin="round"/>
<path d="M91.2218 25.5555C91.2218 25.0033 90.7741 24.5555 90.2218 24.5555H9.77734C9.22506 24.5555 8.77734 25.0033 8.77734 25.5555V67.7778C8.77734 68.3301 9.22506 68.7778 9.77734 68.7778H90.2218C90.7741 68.7778 91.2218 68.3301 91.2218 67.7778V25.5555Z" fill="white" stroke="#202020" stroke-width="2" stroke-linecap="round" stroke-linejoin="round"/>
<path d="M91.2218 22.2222C91.2218 21.6699 90.7741 21.2222 90.2218 21.2222H9.77734C9.22506 21.2222 8.77734 21.6699 8.77734 22.2222V64.4444C8.77734 64.9967 9.22506 65.4444 9.77734 65.4444H90.2218C90.7741 65.4444 91.2218 64.9967 91.2218 64.4444V22.2222Z" fill="white" stroke="#202020" stroke-width="2" stroke-linecap="round" stroke-linejoin="round"/>
<path d="M80.9525 26.2662C80.7933 25.902 80.4336 25.6666 80.0361 25.6666H19.9628C19.5653 25.6666 19.2056 25.902 19.0464 26.2662C18.0273 28.5987 16.1538 30.4723 13.8213 31.4914C13.4571 31.6505 13.2217 32.0103 13.2217 32.4077V54.2588C13.2217 54.6563 13.4571 55.0161 13.8213 55.1752C16.1538 56.1943 18.0273 58.0678 19.0464 60.4003C19.2056 60.7646 19.5653 61 19.9628 61H80.0361C80.4336 61 80.7933 60.7646 80.9525 60.4003C81.9716 58.0678 83.8451 56.1943 86.1776 55.1752C86.5418 55.0161 86.7772 54.6563 86.7772 54.2588V32.4077C86.7772 32.0103 86.5418 31.6505 86.1776 31.4914C83.8451 30.4723 81.9716 28.5987 80.9525 26.2662Z" fill="white" stroke="#202020" stroke-width="2" stroke-linecap="round" stroke-linejoin="round"/>
<path d="M49.9992 58.2222C58.2221 58.2222 64.8881 51.5563 64.8881 43.3333C64.8881 35.1104 58.2221 28.4445 49.9992 28.4445C41.7763 28.4445 35.1104 35.1104 35.1104 43.3333C35.1104 51.5563 41.7763 58.2222 49.9992 58.2222Z" fill="white" stroke="#202020" stroke-width="2" stroke-linecap="round" stroke-linejoin="round"/>
<path d="M49.999 55.8334C56.9026 55.8334 62.499 50.2369 62.499 43.3334C62.499 36.4298 56.9026 30.8334 49.999 30.8334C43.0955 30.8334 37.499 36.4298 37.499 43.3334C37.499 50.2369 43.0955 55.8334 49.999 55.8334Z" fill="#F7931A"/>
<path d="M54.6868 44.5645C54.5246 44.1734 54.2868 43.8289 53.9735 43.5289C53.6601 43.2289 53.2735 42.9711 52.8135 42.7534C52.3535 42.5367 51.8246 42.3622 51.2246 42.2322L50.5968 42.09V39.5611C50.9424 39.6122 51.2235 39.7222 51.4401 39.8922C51.7501 40.1345 51.9246 40.4734 51.9635 40.9078H54.769C54.7613 40.1545 54.5657 39.4911 54.1835 38.9189C53.8013 38.3467 53.2635 37.9022 52.5701 37.5845C51.9968 37.3211 51.339 37.1678 50.5968 37.1222V35.7589H49.6257V37.1245C48.9057 37.1722 48.2524 37.3245 47.6668 37.5822C46.949 37.8978 46.3868 38.3378 45.9801 38.9022C45.5735 39.4667 45.3724 40.1234 45.3768 40.8734C45.3724 41.7922 45.6724 42.5211 46.2768 43.06C46.8801 43.5989 47.7068 43.9878 48.7568 44.2289L49.6268 44.4322V47.1011C49.3801 47.07 49.1546 47.0122 48.949 46.9278C48.6235 46.7934 48.3679 46.5967 48.1824 46.3356C47.9968 46.0756 47.8924 45.75 47.869 45.3589H45.0635C45.0757 46.3056 45.2901 47.0889 45.709 47.7089C46.1268 48.3289 46.7135 48.79 47.4668 49.0934C48.0957 49.3467 48.8168 49.4945 49.6268 49.5367V50.9111H50.5979V49.5378C51.4046 49.4978 52.1079 49.3567 52.7079 49.1122C53.4246 48.82 53.9735 48.4 54.3557 47.8511C54.7379 47.3022 54.9313 46.6456 54.9357 45.88C54.9313 45.3945 54.849 44.9567 54.6868 44.5656V44.5645ZM49.4368 41.7889C49.2157 41.71 49.0279 41.6178 48.8713 41.5134C48.7157 41.4089 48.5968 41.2878 48.5157 41.1489C48.4346 41.0111 48.3979 40.8511 48.4057 40.67C48.4101 40.4489 48.4746 40.2522 48.6013 40.0811C48.7279 39.91 48.9168 39.7745 49.169 39.6756C49.3035 39.6234 49.4557 39.5856 49.6246 39.5611V41.8522C49.559 41.8322 49.4957 41.8111 49.4357 41.7889H49.4368ZM51.7335 46.5234C51.5835 46.7122 51.369 46.8611 51.0913 46.9678C50.9435 47.0245 50.7779 47.0656 50.5968 47.0922V44.6756C50.7913 44.7345 50.9635 44.7945 51.1146 44.8578C51.4001 44.9778 51.6124 45.12 51.7513 45.2845C51.889 45.4478 51.9601 45.6445 51.9646 45.8734C51.9601 46.1178 51.8835 46.3345 51.7335 46.5245V46.5234Z" fill="#202020"/>
<path d="M25.1664 47.1111C27.2529 47.1111 28.9442 45.4197 28.9442 43.3333C28.9442 41.2469 27.2529 39.5555 25.1664 39.5555C23.08 39.5555 21.3887 41.2469 21.3887 43.3333C21.3887 45.4197 23.08 47.1111 25.1664 47.1111Z" fill="#FF9C2E" stroke="#202020" stroke-width="2" stroke-linecap="round" stroke-linejoin="round"/>
<path d="M74.8325 46.1111C76.3666 46.1111 77.6102 44.8674 77.6102 43.3333C77.6102 41.7992 76.3666 40.5555 74.8325 40.5555C73.2983 40.5555 72.0547 41.7992 72.0547 43.3333C72.0547 44.8674 73.2983 46.1111 74.8325 46.1111Z" fill="#FF9C2E" stroke="#202020" stroke-width="2" stroke-linecap="round" stroke-linejoin="round"/>
</g>
<defs>
<clipPath id="clip0_531_34585">
<rect width="100" height="100" fill="white"/>
</clipPath>
</defs>
</svg>
