<svg width="92" height="92" viewBox="0 0 92 92" fill="none" xmlns="http://www.w3.org/2000/svg">
<g clip-path="url(#clip0_531_34602)">
<rect x="13.8643" y="37.0962" width="36.1356" height="41.9431" fill="white" stroke="black" stroke-width="2"/>
<path fill-rule="evenodd" clip-rule="evenodd" d="M17 37H45.9831V68.5911C45.7712 68.5701 45.5564 68.5593 45.339 68.5593C41.7819 68.5593 38.8983 71.4429 38.8983 75H23.4407C23.4407 71.4429 20.5571 68.5593 17 68.5593H17V37Z" fill="#F7A600"/>
<path d="M45.9831 37H46.9831V36H45.9831V37ZM17 37V36H16V37H17ZM45.9831 68.5911L45.8843 69.5862L46.9831 69.6953V68.5911H45.9831ZM38.8983 75V76H39.8983V75H38.8983ZM23.4407 75H22.4407V76H23.4407V75ZM17 68.5593H16V69.5593H17V68.5593ZM45.9831 36H17V38H45.9831V36ZM46.9831 68.5911V37H44.9831V68.5911H46.9831ZM45.339 69.5593C45.5233 69.5593 45.7052 69.5685 45.8843 69.5862L46.0818 67.596C45.8372 67.5717 45.5894 67.5593 45.339 67.5593V69.5593ZM39.8983 75C39.8983 71.9952 42.3342 69.5593 45.339 69.5593V67.5593C41.2296 67.5593 37.8983 70.8906 37.8983 75H39.8983ZM23.4407 76H38.8983V74H23.4407V76ZM17 69.5593C20.0048 69.5593 22.4407 71.9952 22.4407 75H24.4407C24.4407 70.8906 21.1094 67.5593 17 67.5593V69.5593ZM17 69.5593H17V67.5593H17V69.5593ZM16 37V68.5593H18V37H16Z" fill="black"/>
<circle cx="31.4068" cy="52.4068" r="7.40678" stroke="black" stroke-width="2"/>
<path d="M10 16.2203C10 14.4418 11.4418 13 13.2203 13H60.2373C62.0158 13 63.4576 14.4418 63.4576 16.2203V20.0847V26.8475V44.5593C63.4576 46.3379 62.0158 47.7797 60.2373 47.7797H13.2203C11.4418 47.7797 10 46.3379 10 44.5593V26.8475V20.0847V16.2203Z" fill="white"/>
<path d="M10 20.0847V16.2203C10 14.4418 11.4418 13 13.2203 13H60.2373C62.0158 13 63.4576 14.4418 63.4576 16.2203V20.0847M10 20.0847H63.4576M10 20.0847V26.8475M63.4576 20.0847V26.8475M63.4576 26.8475V44.5593C63.4576 46.3379 62.0158 47.7797 60.2373 47.7797H13.2203C11.4418 47.7797 10 46.3379 10 44.5593V26.8475M63.4576 26.8475H10" stroke="black" stroke-width="2"/>
<circle cx="49.9323" cy="37.4745" r="4.50847" fill="white" stroke="black" stroke-width="2"/>
<circle cx="54.4411" cy="37.4745" r="4.50847" fill="white" stroke="black" stroke-width="2"/>
<circle cx="67.9408" cy="67.5678" r="11.5678" fill="white" stroke="black" stroke-width="2"/>
<path d="M72.2104 66.2917V64.9397C72.2104 63.4464 70.9997 62.2357 69.5064 62.2357H68.0578M63.9053 69.5751V70.734C63.9053 72.4407 65.2888 73.8242 66.9955 73.8242H68.0578M68.0578 73.8242H69.3132C70.9133 73.8242 72.2104 72.5271 72.2104 70.9271V70.9271C72.2104 69.3271 70.9133 68.03 69.3132 68.03H66.8024C65.2024 68.03 63.9053 66.7329 63.9053 65.1329V65.1329C63.9053 63.5328 65.2024 62.2357 66.8024 62.2357H68.0578M68.0578 73.8242V75.3694M68.0578 62.2357V60.3043" stroke="black" stroke-width="2"/>
<path d="M69.2199 47.5763L69.2199 24.3899M69.2199 24.3899L65.3555 29.2204M69.2199 24.3899L73.0843 29.2204" stroke="black" stroke-width="2"/>
<path d="M79.8478 50.1526L79.8478 35.9831M79.8478 35.9831L77.2715 38.9351M79.8478 35.9831L82.424 38.9351" stroke="black" stroke-width="2"/>
</g>
<defs>
<clipPath id="clip0_531_34602">
<rect width="92" height="92" fill="white"/>
</clipPath>
</defs>
</svg>
