<svg width="100" height="100" viewBox="0 0 100 100" fill="none" xmlns="http://www.w3.org/2000/svg">
<path d="M24.7998 15.3684C24.7998 11.299 28.0988 8 32.1682 8H67.8314C71.9009 8 75.1998 11.299 75.1998 15.3684V20.8211V78.5158V84.6316C75.1998 88.701 71.9008 92 67.8314 92H32.1682C28.0988 92 24.7998 88.701 24.7998 84.6316V78.5158V20.8211V15.3684Z" fill="white"/>
<path d="M24.7998 20.8211V15.3684C24.7998 11.299 28.0988 8 32.1682 8H67.8314C71.9009 8 75.1998 11.299 75.1998 15.3684V20.8211M24.7998 20.8211H75.1998M24.7998 20.8211V78.5158M75.1998 20.8211V78.5158M75.1998 78.5158V84.6316C75.1998 88.701 71.9008 92 67.8314 92H32.1682C28.0988 92 24.7998 88.701 24.7998 84.6316V78.5158M75.1998 78.5158H24.7998" stroke="black" stroke-width="2"/>
<rect x="29.2207" y="29.2211" width="42.4421" height="42.4421" rx="21.2211" fill="#F7931A"/>
<path d="M44.0098 42.5774C43.5502 42.8837 43.4261 43.5046 43.7324 43.9641C44.0388 44.4237 44.6596 44.5478 45.1192 44.2415L44.0098 42.5774ZM45.1192 44.2415C45.9237 43.7051 47.4039 43.0302 49.1208 42.8348C50.8168 42.6418 52.6982 42.9188 54.4191 44.2094L55.6191 42.6094C53.4041 40.9482 50.9806 40.6102 48.8946 40.8477C46.8293 41.0827 45.0501 41.8838 44.0098 42.5774L45.1192 44.2415Z" fill="black"/>
<path d="M42.1045 40.5496C44.8176 38.6933 51.6909 36.0945 57.4789 40.5496" stroke="black" stroke-width="2"/>
<path d="M38.4141 38.0898C42.2125 35.3053 51.835 31.4071 59.9383 38.0898" stroke="black" stroke-width="2"/>
<path d="M38 49H62V65H38V49Z" fill="white"/>
<path d="M38 49H62M38 49V65M38 49L45.2 57M62 49V65M62 49L55.1429 57M62 65H38M62 65L55.1429 57M38 65L45.2 57M45.2 57H55.1429" stroke="black" stroke-width="2"/>
<line x1="33.6416" y1="14.0737" x2="38.9469" y2="14.0737" stroke="black" stroke-width="2"/>
<line x1="42.4844" y1="14.0737" x2="57.516" y2="14.0737" stroke="black" stroke-width="2"/>
<line x1="42.4844" y1="83.9263" x2="57.516" y2="83.9263" stroke="black" stroke-width="2"/>
</svg>
