<svg width="60" height="60" viewBox="0 0 60 60" fill="none" xmlns="http://www.w3.org/2000/svg">
<path fill-rule="evenodd" clip-rule="evenodd" d="M30 6.5C17.0213 6.5 6.5 17.0213 6.5 30C6.5 42.9787 17.0213 53.5 30 53.5C42.9787 53.5 53.5 42.9787 53.5 30C53.5 17.0213 42.9787 6.5 30 6.5ZM30 2.5C14.8122 2.5 2.5 14.8122 2.5 30C2.5 45.1878 14.8122 57.5 30 57.5C45.1878 57.5 57.5 45.1878 57.5 30C57.5 14.8122 45.1878 2.5 30 2.5Z" fill="#121214"/>
<path fill-rule="evenodd" clip-rule="evenodd" d="M43.8923 21.0642C44.6853 21.8331 44.7047 23.0993 43.9358 23.8923L27.9358 40.3923C27.1732 41.1787 25.9198 41.2053 25.1245 40.4519L15.6245 31.4519C14.8227 30.6922 14.7884 29.4264 15.5481 28.6245C16.3078 27.8226 17.5736 27.7884 18.3755 28.5481L26.4404 36.1885L41.0642 21.1077C41.8331 20.3147 43.0993 20.2953 43.8923 21.0642Z" fill="#F7A600"/>
</svg>
