<svg width="64" height="64" viewBox="0 0 64 64" fill="none" xmlns="http://www.w3.org/2000/svg">
<ellipse cx="32" cy="21" rx="22" ry="9" stroke="#121214" stroke-width="4"/>
<path d="M53 42.3088C53.6498 43.1584 54 44.0622 54 44.9994C54 49.97 44.1503 53.9994 32 53.9994C19.8497 53.9994 10 49.97 10 44.9994C10 43.936 10.4508 42.9157 11.2785 41.9688" stroke="#121214" stroke-width="4" stroke-linecap="round"/>
<path d="M53 30.34C53.6498 31.1896 54 32.0934 54 33.0306C54 38.0012 44.1503 42.0306 32 42.0306C19.8497 42.0306 10 38.0012 10 33.0306C10 31.9673 10.4508 30.947 11.2785 30" stroke="#F7A600" stroke-width="4" stroke-linecap="round"/>
<path d="M54 2L54.1617 2.97036C54.6663 5.99789 56.9903 8.39806 60 9C56.9903 9.60194 54.6663 12.0021 54.1617 15.0296L54 16L53.8444 15.072C53.3354 12.0362 51.0142 9.6246 48 9C51.0097 8.39806 53.3337 5.99789 53.8383 2.97036L54 2Z" fill="#F7A600"/>
<path d="M57.9996 16.0001L58.0204 16.1595C58.152 17.169 58.9832 17.942 59.9996 18.0001L59.9233 18.0142C58.9247 18.1991 58.1527 18.9961 57.9996 20.0001C57.9005 19.0121 57.1586 18.2094 56.1815 18.0329L55.9996 18.0001C57.0466 17.9472 57.8954 17.1327 57.9914 16.0888L57.9996 16.0001Z" fill="#121214"/>
</svg>
