<svg width="64" height="64" viewBox="0 0 64 64" fill="none" xmlns="http://www.w3.org/2000/svg">
<mask id="path-1-inside-1_718_110448" fill="white">
<path d="M51.986 25.4375C52.9464 25.8885 53.7961 26.5448 54.4752 27.36C55.1567 28.1753 55.6506 29.1304 55.9221 30.1577C56.1935 31.1851 56.2358 32.2595 56.046 33.305L52.9768 50.2217C52.6715 51.89 51.791 53.3985 50.4884 54.4847C49.1859 55.571 47.5437 56.1661 45.8477 56.1667H15.0835C13.1607 56.1667 11.3166 55.4029 9.95697 54.0432C8.59733 52.6836 7.8335 50.8395 7.8335 48.9167V32C7.8335 30.0772 8.59733 28.2331 9.95697 26.8735C11.3166 25.5139 13.1607 24.75 15.0835 24.75H20.7627L27.6502 9.25919C27.8408 8.83519 28.1496 8.47515 28.5397 8.22226C28.9297 7.96936 29.3845 7.83433 29.8493 7.83336C31.4637 7.82586 33.0559 8.21009 34.4892 8.95311C35.9225 9.69612 37.1541 10.7757 38.0785 12.0993C39.0029 13.4229 39.5924 14.951 39.7965 16.5525C40.0005 18.154 39.8131 19.7811 39.2502 21.2942L37.8968 24.75H48.9168C49.9779 24.7518 51.0255 24.9865 51.986 25.4375Z"/>
</mask>
<path d="M54.4752 27.36L51.4017 29.92L51.4062 29.9254L54.4752 27.36ZM48.9168 24.75L48.9237 20.75H48.9168V24.75ZM37.8968 24.75L34.1722 23.2914C33.6901 24.5226 33.8475 25.9124 34.5927 27.0045C35.3379 28.0967 36.5747 28.75 37.8968 28.75V24.75ZM39.2502 21.2942L42.9747 22.7528L42.9872 22.7209L42.9991 22.6889L39.2502 21.2942ZM39.7965 16.5525L43.7644 16.0469V16.0469L39.7965 16.5525ZM38.0785 12.0993L34.7991 14.3896L34.7991 14.3896L38.0785 12.0993ZM34.4892 8.95311L32.6483 12.5043L32.6483 12.5043L34.4892 8.95311ZM29.8493 7.83336L29.8577 11.8334L29.8679 11.8333L29.8493 7.83336ZM28.5397 8.22226L30.7157 11.5786L30.7157 11.5786L28.5397 8.22226ZM27.6502 9.25919L24.0018 7.61921L23.9985 7.62665L23.9952 7.63411L27.6502 9.25919ZM20.7627 24.75V28.75C22.3432 28.75 23.7755 27.8193 24.4177 26.3751L20.7627 24.75ZM9.95697 26.8735L12.7854 29.7019H12.7854L9.95697 26.8735ZM9.95697 54.0432L12.7854 51.2148H12.7854L9.95697 54.0432ZM45.8477 56.1667V60.1667H45.849L45.8477 56.1667ZM52.9768 50.2217L56.9115 50.9417L56.9126 50.9358L52.9768 50.2217ZM56.046 33.305L52.1103 32.5904L52.1102 32.591L56.046 33.305ZM57.5487 24.8C56.495 23.535 55.1764 22.5166 53.6861 21.8168L50.2858 29.0582C50.7163 29.2604 51.0972 29.5546 51.4017 29.92L57.5487 24.8ZM53.6861 21.8168C52.1958 21.117 50.5701 20.7528 48.9237 20.75L48.91 28.75C49.3856 28.7508 49.8553 28.856 50.2858 29.0582L53.6861 21.8168ZM48.9168 20.75H37.8968V28.75H48.9168V20.75ZM41.6214 26.2086L42.9747 22.7528L35.5256 19.8356L34.1722 23.2914L41.6214 26.2086ZM42.9991 22.6889C43.7877 20.5694 44.0502 18.2902 43.7644 16.0469L35.8286 17.0581C35.9508 18.0178 35.8385 18.9928 35.5012 19.8995L42.9991 22.6889ZM43.7644 16.0469C43.4785 13.8036 42.6528 11.6631 41.3579 9.80904L34.7991 14.3896C35.353 15.1828 35.7063 16.0984 35.8286 17.0581L43.7644 16.0469ZM41.3579 9.80904C40.0631 7.95498 38.3378 6.44269 36.3301 5.40191L32.6483 12.5043C33.5071 12.9495 34.2452 13.5965 34.7991 14.3896L41.3579 9.80904ZM36.3301 5.40191C34.3224 4.36112 32.0922 3.8229 29.8307 3.8334L29.8679 11.8333C30.8353 11.8288 31.7894 12.0591 32.6483 12.5043L36.3301 5.40191ZM29.841 3.83337C28.6067 3.83594 27.3993 4.19447 26.3636 4.86596L30.7157 11.5786C30.4602 11.7442 30.1622 11.8327 29.8577 11.8334L29.841 3.83337ZM26.3636 4.86595C25.3279 5.53744 24.5079 6.4934 24.0018 7.61921L31.2985 10.8992C31.1736 11.177 30.9713 11.4129 30.7157 11.5786L26.3636 4.86595ZM23.9952 7.63411L17.1077 23.1249L24.4177 26.3751L31.3052 10.8843L23.9952 7.63411ZM20.7627 20.75H15.0835V28.75H20.7627V20.75ZM15.0835 20.75C12.0998 20.75 9.23833 21.9353 7.12855 24.0451L12.7854 29.7019C13.3949 29.0924 14.2215 28.75 15.0835 28.75V20.75ZM7.12855 24.0451C5.01876 26.1549 3.8335 29.0163 3.8335 32H11.8335C11.8335 31.1381 12.1759 30.3114 12.7854 29.7019L7.12855 24.0451ZM3.8335 32V48.9167H11.8335V32H3.8335ZM3.8335 48.9167C3.8335 51.9004 5.01876 54.7619 7.12855 56.8716L12.7854 51.2148C12.1759 50.6053 11.8335 49.7786 11.8335 48.9167H3.8335ZM7.12855 56.8716C9.23833 58.9814 12.0998 60.1667 15.0835 60.1667V52.1667C14.2215 52.1667 13.3949 51.8243 12.7854 51.2148L7.12855 56.8716ZM15.0835 60.1667H45.8477V52.1667H15.0835V60.1667ZM45.849 60.1667C48.4808 60.1658 51.029 59.2423 53.0502 57.5568L47.9267 51.4127C47.3428 51.8996 46.6066 52.1664 45.8463 52.1667L45.849 60.1667ZM53.0502 57.5568C55.0714 55.8713 56.4378 53.5305 56.9115 50.9417L49.0422 49.5017C48.9053 50.2496 48.5106 50.9258 47.9267 51.4127L53.0502 57.5568ZM56.9126 50.9358L59.9817 34.0191L52.1102 32.591L49.0411 49.5076L56.9126 50.9358ZM59.9816 34.0196C60.2762 32.3973 60.2106 30.73 59.7893 29.1359L52.0548 31.1796C52.1765 31.6401 52.1954 32.1218 52.1103 32.5904L59.9816 34.0196ZM59.7893 29.1359C59.3681 27.5417 58.6016 26.0597 57.5441 24.7946L51.4062 29.9254C51.7117 30.2909 51.9331 30.7191 52.0548 31.1796L59.7893 29.1359Z" fill="#121214" mask="url(#path-1-inside-1_718_110448)"/>
<path d="M24 52.1674L20 52.1674L20 28.7379L24 27.1101V52.1674Z" fill="#F7A600"/>
</svg>
