<svg width="64" height="64" viewBox="0 0 64 64" fill="none" xmlns="http://www.w3.org/2000/svg">
<g clip-path="url(#clip0_531_34247)">
<path d="M55.579 31.7C57.059 30.24 57.999 28.22 57.999 26C57.999 21.58 54.419 18 49.999 18C45.579 18 41.999 21.58 41.999 26C41.999 28.24 42.919 30.26 44.419 31.7C41.759 33.5 39.999 36.54 39.999 40V44C39.999 45.1 40.899 46 41.999 46H57.999C59.099 46 59.999 45.1 59.999 44V40C59.999 36.56 58.239 33.5 55.579 31.7ZM45.999 26C45.999 23.8 47.799 22 49.999 22C52.199 22 53.999 23.8 53.999 26C53.999 28.2 52.199 30 49.999 30C47.799 30 45.999 28.2 45.999 26ZM55.999 42H43.999V40C43.999 36.7 46.699 34 49.999 34C53.299 34 55.999 36.7 55.999 40V42Z" fill="#202020"/>
<path d="M19.579 31.7C21.059 30.24 21.999 28.22 21.999 26C21.999 21.58 18.419 18 13.999 18C9.57902 18 5.99902 21.58 5.99902 26C5.99902 28.24 6.91902 30.26 8.41902 31.7C5.75902 33.5 3.99902 36.54 3.99902 40V44C3.99902 45.1 4.89902 46 5.99902 46H21.999C23.099 46 23.999 45.1 23.999 44V40C23.999 36.56 22.239 33.5 19.579 31.7ZM9.99902 26C9.99902 23.8 11.799 22 13.999 22C16.199 22 17.999 23.8 17.999 26C17.999 28.2 16.199 30 13.999 30C11.799 30 9.99902 28.2 9.99902 26ZM19.999 42H7.99902V40C7.99902 36.7 10.699 34 13.999 34C17.299 34 19.999 36.7 19.999 40V42Z" fill="#202020"/>
<path d="M48.5996 14.0002C48.1396 14.0002 47.6996 13.8402 47.3196 13.5402C43.0196 9.96024 37.5796 8.00024 31.9996 8.00024C26.4196 8.00024 20.9796 9.96024 16.6796 13.5402C15.8396 14.2402 14.5596 14.1202 13.8596 13.2802C13.1596 12.4402 13.2796 11.1602 14.1196 10.4602C19.1396 6.30024 25.4796 4.00024 31.9996 4.00024C38.5196 4.00024 44.8596 6.30024 49.8796 10.4602C50.7196 11.1602 50.8396 12.4202 50.1396 13.2802C49.7396 13.7602 49.1796 14.0002 48.5996 14.0002Z" fill="#FF9C2E"/>
<path d="M31.9996 60.0002C25.4796 60.0002 19.1396 57.7002 14.1196 53.5402C13.2796 52.8402 13.1596 51.5802 13.8596 50.7202C14.5596 49.8802 15.8196 49.7602 16.6796 50.4602C20.9796 54.0402 26.4196 56.0002 31.9996 56.0002C37.5796 56.0002 43.0196 54.0402 47.3196 50.4602C48.1596 49.7602 49.4396 49.8802 50.1396 50.7202C50.8396 51.5602 50.7196 52.8402 49.8796 53.5402C44.8596 57.7002 38.5196 60.0002 31.9996 60.0002Z" fill="#FF9C2E"/>
<path d="M48.5996 14.0002C48.1396 14.0002 47.6996 13.8402 47.3196 13.5402C43.0196 9.96024 37.5796 8.00024 31.9996 8.00024C26.4196 8.00024 20.9796 9.96024 16.6796 13.5402C15.8396 14.2402 14.5596 14.1202 13.8596 13.2802C13.1596 12.4402 13.2796 11.1602 14.1196 10.4602C19.1396 6.30024 25.4796 4.00024 31.9996 4.00024C38.5196 4.00024 44.8596 6.30024 49.8796 10.4602C50.7196 11.1602 50.8396 12.4202 50.1396 13.2802C49.7396 13.7602 49.1796 14.0002 48.5996 14.0002Z" fill="#FF9C2E"/>
<path d="M31.9996 60.0002C25.4796 60.0002 19.1396 57.7002 14.1196 53.5402C13.2796 52.8402 13.1596 51.5802 13.8596 50.7202C14.5596 49.8802 15.8196 49.7602 16.6796 50.4602C20.9796 54.0402 26.4196 56.0002 31.9996 56.0002C37.5796 56.0002 43.0196 54.0402 47.3196 50.4602C48.1596 49.7602 49.4396 49.8802 50.1396 50.7202C50.8396 51.5602 50.7196 52.8402 49.8796 53.5402C44.8596 57.7002 38.5196 60.0002 31.9996 60.0002Z" fill="#FF9C2E"/>
</g>
<defs>
<clipPath id="clip0_531_34247">
<rect width="64" height="64" fill="white"/>
</clipPath>
</defs>
</svg>
