<svg width="64" height="64" viewBox="0 0 64 64" fill="none" xmlns="http://www.w3.org/2000/svg">
<g clip-path="url(#clip0_531_34259)">
<path d="M32 32C35.866 32 39 28.866 39 25C39 21.134 35.866 18 32 18C28.134 18 25 21.134 25 25C25 28.866 28.134 32 32 32Z" fill="#FF9C2E"/>
<path d="M32.001 24L24.001 42H40.001L32.001 24Z" fill="#FF9C2E"/>
<path d="M32 60C31.6 60 31.18 59.88 30.84 59.62L16.84 49.62C10 44.82 10 40.04 10 34V14C10 13.18 10.5 12.44 11.26 12.14L31.26 4.13999C31.74 3.93999 32.26 3.93999 32.74 4.13999L52.74 12.14C53.5 12.44 54 13.18 54 14V34C54 40.04 54 44.82 47.16 49.64L33.18 59.64C32.84 59.88 32.42 60.02 32.02 60.02L32 60ZM14 15.36V34C14 39.82 14 42.74 19.16 46.36L32 55.54L44.84 46.38C50 42.76 50 39.82 50 34V15.36L32 8.15999L14 15.36Z" fill="#202020"/>
</g>
<defs>
<clipPath id="clip0_531_34259">
<rect width="64" height="64" fill="white"/>
</clipPath>
</defs>
</svg>
