<svg width="64" height="64" viewBox="0 0 64 64" fill="none" xmlns="http://www.w3.org/2000/svg">
<g id="light/speaker-person-microphone" clip-path="url(#clip0_508_21527)">
<path id="Vector" d="M55.4195 34.5805L50.6595 29.8205C50.8795 29.2605 51.0195 28.6405 51.0195 28.0005C51.0195 25.2405 48.7795 23.0005 46.0195 23.0005C43.2595 23.0005 41.0195 25.2405 41.0195 28.0005C41.0195 30.7605 43.2595 33.0005 46.0195 33.0005C46.6595 33.0005 47.2795 32.8605 47.8395 32.6405L52.0195 36.8205V54.0005C52.0195 55.1005 52.9195 56.0005 54.0195 56.0005C55.1195 56.0005 56.0195 55.1005 56.0195 54.0005V36.0005C56.0195 35.4605 55.7995 34.9605 55.4395 34.5805H55.4195Z" fill="#FF9C2E"/>
<path id="Vector_2" d="M28 32C21.38 32 16 26.62 16 20C16 13.38 21.38 8 28 8C34.62 8 40 13.38 40 20C40 26.62 34.62 32 28 32ZM28 12C23.58 12 20 15.58 20 20C20 24.42 23.58 28 28 28C32.42 28 36 24.42 36 20C36 15.58 32.42 12 28 12Z" fill="#202020"/>
<path id="Vector_3" d="M60 52H48V46C48 39.38 42.62 34 36 34H20C13.38 34 8 39.38 8 46V52H4C2.9 52 2 52.9 2 54C2 55.1 2.9 56 4 56H60C61.1 56 62 55.1 62 54C62 52.9 61.1 52 60 52ZM12 46C12 41.58 15.58 38 20 38H36C40.42 38 44 41.58 44 46V52H12V46Z" fill="#202020"/>
</g>
<defs>
<clipPath id="clip0_508_21527">
<rect width="64" height="64" fill="white"/>
</clipPath>
</defs>
</svg>
