<svg width="64" height="64" viewBox="0 0 64 64" fill="none" xmlns="http://www.w3.org/2000/svg">
<g clip-path="url(#clip0_531_34241)">
<path d="M42.001 8C49.721 8 56.001 14.28 56.001 22C56.001 29.72 49.721 36 42.001 36C34.281 36 28.001 29.72 28.001 22C28.001 14.28 34.281 8 42.001 8ZM42.001 4C32.061 4 24.001 12.06 24.001 22C24.001 31.94 32.061 40 42.001 40C51.941 40 60.001 31.94 60.001 22C60.001 12.06 51.941 4 42.001 4Z" fill="#FF9C2E"/>
<path d="M11.999 36.0002C14.199 36.0002 15.999 37.8002 15.999 40.0002C15.999 42.2002 14.199 44.0002 11.999 44.0002C9.79902 44.0002 7.99902 42.2002 7.99902 40.0002C7.99902 37.8002 9.79902 36.0002 11.999 36.0002ZM11.999 32.0002C7.57902 32.0002 3.99902 35.5802 3.99902 40.0002C3.99902 44.4202 7.57902 48.0002 11.999 48.0002C16.419 48.0002 19.999 44.4202 19.999 40.0002C19.999 35.5802 16.419 32.0002 11.999 32.0002Z" fill="#FF9C2E"/>
<path d="M57.9205 36.5203C57.6205 35.4603 56.5205 34.8403 55.4605 35.1403L7.46048 48.7603C6.40048 49.0603 5.78048 50.1603 6.08048 51.2203C6.32048 52.1003 7.14048 52.6803 8.00048 52.6803C8.18048 52.6803 8.36048 52.6603 8.54048 52.6003L28.5605 46.9203L22.3005 56.9203C21.9205 57.5403 21.9005 58.3203 22.2405 58.9403C22.6005 59.5803 23.2605 59.9803 23.9805 59.9803H39.9805C40.7005 59.9803 41.3805 59.5803 41.7205 58.9403C42.0805 58.3003 42.0605 57.5203 41.6605 56.9203L34.3605 45.2603L56.5005 38.9803C57.5605 38.6803 58.1805 37.5803 57.8805 36.5203H57.9205ZM27.6005 56.0003L32.0005 48.9803L36.4005 56.0003H27.6205H27.6005Z" fill="#202020"/>
</g>
<defs>
<clipPath id="clip0_531_34241">
<rect width="64" height="64" fill="white"/>
</clipPath>
</defs>
</svg>
