<svg width="40" height="40" viewBox="0 0 40 40" fill="none" xmlns="http://www.w3.org/2000/svg">
<rect width="40" height="40" rx="20" fill="#596AEA"/>
<path fill-rule="evenodd" clip-rule="evenodd" d="M27.5255 29.9637C27.1286 29.9968 26.7449 29.8219 26.4914 29.5148C26.3832 29.3838 26.2588 29.2326 26.1255 29.0694C25.714 28.566 25.9595 27.8075 26.5548 27.5463C26.8386 27.4217 27.1009 27.2897 27.3428 27.1541C28.0082 26.781 27.6091 26.2628 26.894 26.5284C25.663 27.0454 24.4812 27.3901 23.3241 27.5871C20.9605 28.0302 18.794 27.9071 16.9475 27.5624C15.5441 27.2916 14.3377 26.8977 13.3283 26.5038C12.7621 26.2822 12.1466 26.0114 11.5311 25.6667C11.4941 25.6421 11.4572 25.6236 11.4203 25.6051C11.3833 25.5867 11.3464 25.5682 11.3095 25.5436C11.2712 25.5244 11.2477 25.5053 11.2276 25.4861C11.2164 25.4754 11.1865 25.4561 11.173 25.4485C11.0159 25.3605 10.8837 25.532 11.0055 25.6646C11.4802 26.1816 12.327 26.929 13.6448 27.5179C14.1982 27.7651 14.4217 28.4718 14.0408 28.9433C13.8785 29.1443 13.7264 29.3316 13.5966 29.491C13.3347 29.8126 12.9353 29.9968 12.5221 29.9615C10.4686 29.7858 8.9399 29.1185 7.85399 28.3977C6.1741 27.2825 5.62276 25.1889 5.84306 23.1846C6.26395 19.3554 7.37394 16.0974 8.20661 14.0817C8.81166 12.6171 9.84204 11.3499 11.2563 10.635C13.6366 9.43169 15.6146 9.32728 16.0471 9.31937C16.1031 9.31834 16.1556 9.34366 16.1914 9.38668C16.2809 9.49403 16.2294 9.65837 16.0957 9.6988C13.8289 10.3838 12.2152 11.2356 11.205 11.8792C10.9951 12.0129 11.1326 12.2295 11.3587 12.1257C13.9931 10.9685 16.0858 10.6485 16.9475 10.5746L17.0027 10.5653C17.1269 10.5441 17.237 10.5254 17.366 10.5254C18.8678 10.3284 20.5666 10.2792 22.3393 10.4761C23.0023 10.5529 23.6793 10.6633 24.3673 10.8141C25.2241 11.0019 25.5424 10.3765 24.7174 10.0785C24.489 9.99602 24.2526 9.91479 24.008 9.83536C23.8261 9.77631 23.7618 9.55026 23.8877 9.40638C23.9364 9.35069 24.0041 9.31813 24.0781 9.31992C24.5559 9.33152 26.4809 9.45267 28.7953 10.611C30.2437 11.336 31.2966 12.6323 31.9126 14.1302C32.7393 16.1406 33.829 19.3577 34.2506 23.135C34.4778 25.1705 33.9114 27.2977 32.1977 28.4194C31.1043 29.135 29.5727 29.7934 27.5255 29.9637ZM15.4456 18.5024C14.0422 18.5024 12.9343 19.7334 12.9343 21.2353C12.9343 22.7371 14.0668 23.9681 15.4456 23.9681C16.8489 23.9681 17.9568 22.7371 17.9568 21.2353C17.9814 19.7334 16.8489 18.5024 15.4456 18.5024ZM24.4319 18.5024C23.0285 18.5024 21.9206 19.7334 21.9206 21.2353C21.9206 22.7371 23.0532 23.9681 24.4319 23.9681C25.8352 23.9681 26.9431 22.7371 26.9431 21.2353C26.9431 19.7334 25.8352 18.5024 24.4319 18.5024Z" fill="white"/>
</svg>
