<svg width="24" height="24" viewBox="0 0 24 24" fill="none" xmlns="http://www.w3.org/2000/svg">
<g clip-path="url(#clip0)">
<circle cx="12.055" cy="12.055" r="12.055" fill="#00B900"/>
<path d="M12.1206 4.12305C16.7266 4.12305 20.6054 7.03214 20.6054 10.9109C20.6054 12.123 20.1206 13.5776 19.3933 14.5473C19.3933 14.5473 19.1509 14.5473 19.1509 14.7897C18.9085 15.0321 18.666 15.2746 18.1812 15.517C15.7569 17.6988 11.8782 20.3655 11.3933 20.123C10.9085 19.6382 12.1206 17.9412 10.9085 17.6988C10.666 17.6988 10.666 17.6988 10.666 17.6988C6.54483 16.9715 3.39331 14.3049 3.39331 10.9109C3.39331 7.03214 7.2721 4.12305 12.1206 4.12305ZM7.02967 13.0927H8.72664C8.96907 13.0927 9.21149 12.8503 9.21149 12.6079C9.21149 12.3655 8.96907 12.123 8.72664 12.123H7.51452V9.21396C7.51452 8.97153 7.2721 8.97153 7.02967 8.97153C6.78725 8.97153 6.54483 8.97153 6.54483 9.21396V12.6079C6.54483 12.8503 6.78725 13.0927 7.02967 13.0927ZM17.6963 10.9109C17.6963 10.6685 17.6963 10.4261 17.4539 10.4261H15.9994V9.94123H17.4539C17.6963 9.94123 17.6963 9.6988 17.6963 9.45638C17.6963 9.21396 17.6963 8.97153 17.4539 8.97153H15.7569H15.5145C15.2721 8.97153 15.2721 9.21396 15.2721 9.45638V12.6079C15.2721 12.8503 15.2721 13.0927 15.5145 13.0927H15.7569H17.4539C17.6963 13.0927 17.6963 12.8503 17.6963 12.6079C17.6963 12.3655 17.6963 12.123 17.4539 12.123H15.9994V11.3958H17.4539C17.6963 11.3958 17.6963 11.1533 17.6963 10.9109ZM14.5448 12.8503C14.5448 12.8503 14.5448 12.8503 14.5448 12.6079V9.21396C14.5448 8.97153 14.3024 8.97153 14.06 8.97153C13.8176 8.97153 13.5751 8.97153 13.5751 9.21396V11.3958L12.1206 9.21396C11.8782 8.97153 11.8782 8.97153 11.6357 8.97153C11.3933 8.97153 11.1509 8.97153 11.1509 9.21396V12.6079C11.1509 12.8503 11.3933 13.0927 11.6357 13.0927C11.8782 13.0927 12.1206 12.8503 12.1206 12.6079V10.6685L13.8176 12.8503C13.8176 13.0927 13.8176 13.0927 14.06 13.0927C14.3024 13.0927 14.3024 13.0927 14.3024 13.0927C14.3024 13.0927 14.5448 13.0927 14.5448 12.8503ZM10.1812 13.0927C10.4236 13.0927 10.666 12.8503 10.666 12.6079V9.21396C10.666 8.97153 10.4236 8.97153 10.1812 8.97153C9.93877 8.97153 9.69634 8.97153 9.69634 9.21396V12.6079C9.69634 12.8503 9.93877 13.0927 10.1812 13.0927Z" fill="white"/>
</g>
<defs>
<clipPath id="clip0">
<rect width="24" height="24" fill="white"/>
</clipPath>
</defs>
</svg>
