<svg width="24" height="24" viewBox="0 0 24 24" fill="none" xmlns="http://www.w3.org/2000/svg">
<path d="M24 12C24 5.37258 18.6274 0 12 0C5.37258 0 0 5.37258 0 12C0 18.6274 5.37258 24 12 24C18.6274 24 24 18.6274 24 12Z" fill="#4C75A3"/>
<path d="M12.5413 7.66701C11.7238 7.67082 11.2025 7.67181 10.4676 7.67181C9.85295 7.67181 9.50775 7.92061 9.49678 8.06902C9.48674 8.20471 9.80044 8.31443 9.99119 8.42423C10.1753 8.53837 10.3416 8.90071 10.3416 9.14545V11.2803C10.3416 11.4832 10.2955 11.6245 10.1316 11.7567C10.0535 11.8197 9.96071 11.8365 9.86039 11.8359C9.77921 11.8355 9.66879 11.8203 9.59278 11.7219C8.78317 10.6739 8.78049 10.5445 7.64633 8.43263C7.59132 8.3302 7.53698 8.22152 7.42432 8.13982C7.31167 8.05812 7.14473 8.00422 6.87711 8.00422C5.96549 8.00422 5.40288 8.01742 4.80346 8.01742C4.23607 8.01742 4.29065 8.36537 4.36665 8.52383C5.04688 9.9422 5.73755 11.2965 6.5315 12.6711C7.46129 14.2809 8.3113 15.2479 9.74158 15.9424C10.0736 16.1036 10.6722 16.27 11.364 16.27H12.8341C13.0229 16.27 13.3369 16.121 13.3369 15.9208V14.818C13.3369 14.5026 13.6513 14.3879 13.8229 14.3104C14.025 14.219 14.2369 14.363 14.3437 14.4772C15.1655 15.3557 15.0721 15.2602 15.8209 16.0468C15.9901 16.2246 16.1179 16.318 16.4378 16.318C18.5975 16.318 18.5993 16.3222 19.115 16.318C19.2566 16.3169 19.467 16.1044 19.5134 16.0216C19.5748 15.9123 19.7143 15.5221 19.4906 15.2692C18.7317 14.4109 17.958 13.6251 17.2166 12.8451C17.16 12.7857 17.1173 12.7052 17.1158 12.6231C17.1141 12.5334 17.1641 12.4463 17.2166 12.3735C18.0482 11.2193 18.7351 10.2419 19.4822 9.02784C19.7251 8.6332 19.6937 8.35369 19.649 8.25742C19.5973 8.14594 19.4381 7.99199 19.2554 7.99101C18.2577 7.98542 17.8261 7.97145 16.7618 7.97301C16.4439 7.97349 16.1623 7.94908 15.9877 8.33183C15.52 9.35746 14.7568 10.9225 14.0941 11.5731C13.9717 11.6932 13.8083 11.7824 13.6657 11.7831C13.5231 11.7838 13.3714 11.6867 13.3501 11.4543C13.3338 10.3381 13.3473 9.38573 13.3417 8.29222C13.3399 7.95798 13.199 7.87197 13.0921 7.79781C12.947 7.69721 12.7178 7.66617 12.5413 7.66701V7.66701Z" fill="white"/>
</svg>
