<svg width="28" height="28" viewBox="0 0 28 28" fill="none" xmlns="http://www.w3.org/2000/svg">
<path fill-rule="evenodd" clip-rule="evenodd" d="M7.31064 21.0103H3.69854C3.2665 21.0103 2.9165 20.6603 2.9165 20.2282V12.2138C2.9165 11.7817 3.2665 11.4317 3.69854 11.4317H6.27979C6.27855 11.1322 6.27788 11.0182 6.2775 10.9835C6.39183 3.52932 13.8649 3.50205 13.8649 3.50205C13.9224 3.49932 14.0618 3.49932 14.122 3.50205C14.122 3.50205 21.6072 3.52663 21.7097 11.0016C21.709 10.9601 21.7071 10.8776 21.7071 11.4317H24.2884C24.7204 11.4317 25.0704 11.7817 25.0704 12.2138V20.231C25.0704 20.663 24.7204 21.013 24.2884 21.013H20.679C20.638 21.013 20.597 21.0075 20.556 20.9993H19.8913V19.0187C19.8933 19.0121 19.8942 19.0087 19.8942 19.0087L19.8888 11.0188C19.8368 7.79775 17.22 5.33955 13.9935 5.32314C10.7669 5.33955 8.1501 7.79775 8.10088 11.0188L8.09267 20.2282C8.09267 20.6603 7.74267 21.0103 7.31064 21.0103ZM21.863 13.2419C21.688 13.2419 21.5458 13.4579 21.5458 13.7231V18.6587C21.5458 18.9239 21.688 19.1399 21.863 19.1399H23.1974C23.3724 19.1399 23.5145 18.9267 23.5145 18.6587V13.7231C23.5145 13.4579 23.3724 13.2419 23.1974 13.2419H21.863ZM4.78955 13.2419C4.61455 13.2419 4.47236 13.4579 4.47236 13.7231V18.6587C4.47236 18.9239 4.61455 19.1399 4.78955 19.1399H6.12119C6.29619 19.1399 6.44111 18.9267 6.44111 18.6587V13.7231C6.44111 13.4579 6.29619 13.2419 6.12119 13.2419H4.78955Z" fill="#272636"/>
<path d="M6.27705 11.0161C6.27705 11.0161 6.27705 10.9411 6.2775 10.9835C6.27734 10.9943 6.27719 11.0052 6.27705 11.0161Z" fill="#272636"/>
<path d="M16.4585 22.0965C18.862 22.5012 19.871 19.0176 19.871 19.0176C20.2365 19.0176 20.5327 19.3138 20.5327 19.6793V21.0082C20.5327 21.0082 19.4937 22.9688 17.1229 23.8164C16.8167 23.882 16.505 23.8547 16.4667 23.8766C16.237 24.459 15.6737 24.8746 15.012 24.8746H12.6823C11.8183 24.8746 11.1183 24.1746 11.1183 23.3105V22.8211C11.1183 21.957 11.8183 21.257 12.6823 21.257H15.2144C15.63 21.257 16.2753 21.4867 16.4585 22.0965Z" fill="#F7A600"/>
</svg>
