<svg width="33" height="32" viewBox="0 0 33 32" fill="none" xmlns="http://www.w3.org/2000/svg">
<path fill-rule="evenodd" clip-rule="evenodd" d="M15.5428 5.04157C12.27 5.32732 9.45839 7.01722 7.64775 9.46932C7.31968 9.91361 6.69357 10.0078 6.24928 9.67976C5.80499 9.3517 5.71077 8.72558 6.03884 8.28129C8.17582 5.38724 11.5007 3.38688 15.3689 3.04915C22.5213 2.42467 28.8258 7.71667 29.4503 14.8692C29.4983 15.4194 29.0913 15.9043 28.5411 15.9523C27.9909 16.0004 27.5059 15.5933 27.4579 15.0431C26.9295 8.99101 21.5949 4.51317 15.5428 5.04157Z" fill="#F7A600"/>
<path fill-rule="evenodd" clip-rule="evenodd" d="M4.45812 16.0475C5.00832 15.9995 5.49328 16.4066 5.54131 16.9568C6.06972 23.0089 11.4043 27.4867 17.4564 26.9583C20.9166 26.6562 23.8618 24.7843 25.6528 22.1015C25.9595 21.6422 26.5804 21.5184 27.0398 21.8251C27.4991 22.1317 27.6229 22.7527 27.3162 23.212C25.2027 26.3778 21.7206 28.5936 17.6304 28.9507C10.4779 29.5752 4.17338 24.2832 3.54889 17.1307C3.50086 16.5805 3.90793 16.0956 4.45812 16.0475Z" fill="#121214"/>
<path fill-rule="evenodd" clip-rule="evenodd" d="M5.49377 4.91522C6.04396 4.86718 6.52892 5.27426 6.57696 5.82445L6.83789 8.81308L9.82652 8.55214C10.3767 8.50411 10.8617 8.91118 10.9097 9.46137C10.9578 10.0116 10.5507 10.4965 10.0005 10.5446L6.01564 10.8925C5.46545 10.9405 4.98049 10.5334 4.93245 9.98325L4.58454 5.99841C4.5365 5.44822 4.94358 4.96326 5.49377 4.91522Z" fill="#F7A600"/>
<path fill-rule="evenodd" clip-rule="evenodd" d="M27.5055 27.0848C26.9553 27.1328 26.4703 26.7257 26.4223 26.1756L26.1614 23.1869L23.1727 23.4479C22.6226 23.4959 22.1376 23.0888 22.0896 22.5386C22.0415 21.9884 22.4486 21.5035 22.9988 21.4554L26.9836 21.1075C27.5338 21.0595 28.0188 21.4666 28.0668 22.0168L28.4147 26.0016C28.4628 26.5518 28.0557 27.0367 27.5055 27.0848Z" fill="#121214"/>
<path fill-rule="evenodd" clip-rule="evenodd" d="M14.5 11.5C14.5 12.3284 13.8284 13 13 13C12.1716 13 11.5 12.3284 11.5 11.5C11.5 10.6716 12.1716 10 13 10C13.8284 10 14.5 10.6716 14.5 11.5ZM8.5 19C8.5 16.2386 10.7386 14 13.5 14C14.0523 14 14.5 14.4477 14.5 15C14.5 15.5523 14.0523 16 13.5 16C12.1938 16 11.0825 16.8348 10.6707 18H12.5C13.0523 18 13.5 18.4477 13.5 19C13.5 19.5523 13.0523 20 12.5 20H9.5C8.94772 20 8.5 19.5523 8.5 19ZM19 15C16.5147 15 14.5 17.0147 14.5 19.5V20C14.5 20.5523 14.9477 21 15.5 21H22.5C23.0523 21 23.5 20.5523 23.5 20V19.5C23.5 17.0147 21.4853 15 19 15ZM19 17C20.2095 17 21.2184 17.8589 21.45 19H16.55C16.7816 17.8589 17.7905 17 19 17ZM20.5 12.5C20.5 13.3284 19.8284 14 19 14C18.1716 14 17.5 13.3284 17.5 12.5C17.5 11.6716 18.1716 11 19 11C19.8284 11 20.5 11.6716 20.5 12.5Z" fill="#121214"/>
</svg>
