<svg width="33" height="32" viewBox="0 0 33 32" fill="none" xmlns="http://www.w3.org/2000/svg">
<path d="M8.83333 10.6667C8.83333 10.1144 9.28105 9.66667 9.83333 9.66667H23.1667C23.719 9.66667 24.1667 10.1144 24.1667 10.6667C24.1667 11.219 23.719 11.6667 23.1667 11.6667H9.83333C9.28105 11.6667 8.83333 11.219 8.83333 10.6667Z" fill="#121214"/>
<path d="M17.8333 15C17.281 15 16.8333 15.4477 16.8333 16C16.8333 16.5523 17.281 17 17.8333 17H23.1667C23.719 17 24.1667 16.5523 24.1667 16C24.1667 15.4477 23.719 15 23.1667 15H17.8333Z" fill="#121214"/>
<path d="M17.8333 20.3333C17.281 20.3333 16.8333 20.781 16.8333 21.3333C16.8333 21.8856 17.281 22.3333 17.8333 22.3333H23.1667C23.719 22.3333 24.1667 21.8856 24.1667 21.3333C24.1667 20.781 23.719 20.3333 23.1667 20.3333H17.8333Z" fill="#121214"/>
<path fill-rule="evenodd" clip-rule="evenodd" d="M3.5 6.66667C3.5 4.64162 5.14162 3 7.16667 3H25.8333C27.8584 3 29.5 4.64162 29.5 6.66667V25.3333C29.5 27.3584 27.8584 29 25.8333 29H7.16667C5.14162 29 3.5 27.3584 3.5 25.3333V6.66667ZM7.16667 5C6.24619 5 5.5 5.74619 5.5 6.66667V25.3333C5.5 26.2538 6.24619 27 7.16667 27H25.8333C26.7538 27 27.5 26.2538 27.5 25.3333V6.66667C27.5 5.74619 26.7538 5 25.8333 5H7.16667Z" fill="#121214"/>
<path d="M10.4609 15.2929C10.8514 14.9024 11.4846 14.9024 11.8751 15.2929L14.5417 17.9596C14.9323 18.3501 14.9323 18.9832 14.5417 19.3738L11.8751 22.0404C11.4846 22.431 10.8514 22.431 10.4609 22.0404C10.0703 21.6499 10.0703 21.0168 10.4609 20.6262L12.4204 18.6667L10.4609 16.7071C10.0703 16.3166 10.0703 15.6834 10.4609 15.2929Z" fill="#F7A600"/>
</svg>
