<svg width="33" height="32" viewBox="0 0 33 32" fill="none" xmlns="http://www.w3.org/2000/svg">
<path fill-rule="evenodd" clip-rule="evenodd" d="M20.2047 11V13.0306H17.1115V14.3582C19.6162 14.4718 21.5 14.9622 21.5 15.5498C21.5 16.1373 19.6162 16.6276 17.1115 16.7413V21H14.9078V16.7423C12.3934 16.6303 10.5 16.1391 10.5 15.5498C10.5 14.9605 12.3934 14.4694 14.9078 14.3573V13.0306H11.8146V11H20.2047ZM17.1115 16.2327C19.0887 16.1425 20.5527 15.8174 20.5527 15.4298C20.5527 15.0422 19.0885 14.717 17.1096 14.627V15.8539C16.7589 15.8726 16.3846 15.8825 15.9981 15.8825C15.6176 15.8825 15.2507 15.8727 14.9058 15.8549V14.6233C12.919 14.7132 11.4453 15.0384 11.4453 15.4279C11.4453 15.8174 12.9188 16.1436 14.9058 16.2325L15.0367 16.2381H15.0384C15.1698 16.2431 15.3033 16.2473 15.4388 16.2503H15.4513L15.5656 16.2526H15.5989L15.6945 16.2539H16.3068L16.4034 16.2526H16.4381L16.5606 16.2501H16.5662C16.6576 16.2481 16.7478 16.2455 16.8369 16.2425H16.8498L16.9697 16.2381H16.9838L17.1115 16.2327Z" fill="#F7A600"/>
<circle cx="16.5" cy="16" r="12" stroke="#121214" stroke-width="2" stroke-linecap="round"/>
<line x1="22.5" y1="7" x2="28.5" y2="7" stroke="#F7A600" stroke-width="2" stroke-linecap="round"/>
<line x1="25.5" y1="4" x2="25.5" y2="10" stroke="#F7A600" stroke-width="2" stroke-linecap="round"/>
</svg>
