<svg width="24" height="24" viewBox="0 0 24 24" fill="none" xmlns="http://www.w3.org/2000/svg">
<path d="M9.75 9.15002C9.75 7.90738 10.7574 6.90002 12 6.90002C13.2426 6.90002 14.25 7.90738 14.25 9.15002C14.25 10.3927 13.2426 11.4 12 11.4C10.7574 11.4 9.75 10.3927 9.75 9.15002ZM14.4815 11.9616C15.2594 11.2745 15.75 10.2695 15.75 9.15002C15.75 7.07896 14.0711 5.40002 12 5.40002C9.92893 5.40002 8.25 7.07896 8.25 9.15002C8.25 10.2695 8.74057 11.2745 9.51848 11.9616C7.58514 12.8879 6.25 14.8631 6.25 17.15C6.25 17.5642 6.58579 17.9 7 17.9C7.41421 17.9 7.75 17.5642 7.75 17.15C7.75 14.8028 9.65279 12.9 12 12.9C14.3472 12.9 16.25 14.8028 16.25 17.15C16.25 17.5642 16.5858 17.9 17 17.9C17.4142 17.9 17.75 17.5642 17.75 17.15C17.75 14.8631 16.4149 12.8879 14.4815 11.9616Z" fill="#F7A600"/>
<path d="M5 21.3214C3.48122 21.3214 2.25 20.0902 2.25 18.5714L2.25 4.99999C2.25 3.48121 3.48122 2.24999 5 2.24999L19 2.24999C20.5188 2.24999 21.75 3.4812 21.75 4.99999L21.75 18.5714C21.75 20.0902 20.5188 21.3214 19 21.3214L14.8459 21.3214L13.331 23.096C12.6324 23.9144 11.3676 23.9144 10.669 23.096L9.15413 21.3214L5 21.3214ZM3.75 18.5714C3.75 19.2618 4.30964 19.8214 5 19.8214L9.5 19.8214C9.71947 19.8214 9.92793 19.9175 10.0704 20.0845L11.8099 22.1221C11.9097 22.239 12.0903 22.239 12.1901 22.1221L13.9296 20.0845C14.0721 19.9175 14.2805 19.8214 14.5 19.8214L19 19.8214C19.6904 19.8214 20.25 19.2618 20.25 18.5714L20.25 4.99999C20.25 4.30963 19.6904 3.74999 19 3.74999L5 3.74999C4.30964 3.74999 3.75 4.30963 3.75 4.99999L3.75 18.5714Z" fill="#121214"/>
</svg>
