<svg width="29" height="28" viewBox="0 0 29 28" fill="none" xmlns="http://www.w3.org/2000/svg">
<path d="M7.75713 3.39215C8.54983 2.52018 9.92739 2.54029 10.6943 3.43502C11.3605 4.2123 11.316 5.37148 10.5921 6.09537L7.93751 8.75L5.83948 10.848C5.50206 11.1854 5.04442 11.375 4.56724 11.375C3.00526 11.375 2.18522 9.52126 3.23592 8.36549L7.75713 3.39215Z" fill="#F7A600"/>
<path fill-rule="evenodd" clip-rule="evenodd" d="M16.9458 3.47363C15.8366 2.34212 14.0384 2.34212 12.9292 3.47363L3.51936 13.0731C2.41021 14.2046 2.41021 16.0392 3.51936 17.1707L9.19844 22.9642C10.7099 24.5061 12.7783 25.375 14.9375 25.375V25.375C17.0967 25.375 19.1651 24.5061 20.6766 22.9642L26.3556 17.1707C27.4648 16.0392 27.4648 14.2046 26.3556 13.0731L16.9458 3.47363Z" stroke="#121214" stroke-width="2"/>
<path d="M12.3125 18.375L14.0338 10.5H16.6363L15.2346 16.3549H18.4375L18.1178 18.375H12.3125Z" fill="#F7A600"/>
</svg>
