<svg width="28" height="28" viewBox="0 0 28 28" fill="none" xmlns="http://www.w3.org/2000/svg">
<g clip-path="url(#clip0_1262_213983)">
<path d="M17.0625 14.4375C16.9011 14.5989 16.625 14.4846 16.625 14.2563V6.125L21 5.25V14.2563C21 14.4846 20.7239 14.5989 20.5625 14.4375L19.0205 12.1246C18.9215 11.9762 18.7034 11.9762 18.6045 12.1246L17.0625 14.4375Z" fill="#F7A600"/>
<path d="M4.73257 4.66975L13.7674 6.83025C13.9203 6.86682 14.0797 6.86682 14.2326 6.83025L23.2674 4.66975C23.896 4.51942 24.5 4.99598 24.5 5.64233V19.5464C24.5 19.9817 24.2185 20.3669 23.8038 20.4992L14.3038 23.5281C14.1062 23.5912 13.8938 23.5912 13.6962 23.5281L4.19623 20.4992C3.78154 20.3669 3.5 19.9817 3.5 19.5464V5.64232C3.5 4.99598 4.10395 4.51942 4.73257 4.66975Z" stroke="#121214" stroke-width="2"/>
</g>
<defs>
<clipPath id="clip0_1262_213983">
<rect width="28" height="28" fill="white"/>
</clipPath>
</defs>
</svg>
