<svg width="24" height="24" viewBox="0 0 24 24" fill="none" xmlns="http://www.w3.org/2000/svg">
<path d="M9.5 2.25C12.517 2.25 15.1023 4.09254 16.1943 6.71094C16.2975 6.95824 16.2554 7.22786 16.1113 7.43164C19.3397 8.16447 21.75 11.0499 21.75 14.5C21.75 18.5041 18.5041 21.75 14.5 21.75C11.0499 21.75 8.16448 19.3396 7.43164 16.1113C7.22786 16.2554 6.95824 16.2975 6.71094 16.1943C4.09254 15.1023 2.25 12.517 2.25 9.5C2.25 5.49594 5.49594 2.25 9.5 2.25ZM14.5 8.75C11.3244 8.75004 8.75 11.3244 8.75 14.5C8.75 17.6756 11.3244 20.25 14.5 20.25C17.6756 20.25 20.25 17.6756 20.25 14.5C20.25 11.3244 17.6756 8.75 14.5 8.75ZM9.5 3.75C6.32436 3.75 3.75 6.32436 3.75 9.5C3.75 11.8784 5.19467 13.9201 7.25684 14.7949C7.25292 14.6971 7.25 14.5988 7.25 14.5C7.25 10.496 10.496 7.25004 14.5 7.25C14.5988 7.25 14.6971 7.25292 14.7949 7.25684C13.9201 5.19467 11.8784 3.75 9.5 3.75Z" fill="#121214"/>
<path d="M3.5 15.7499C3.91421 15.7499 4.25 16.0857 4.25 16.4999C4.25 17.7782 4.73238 18.4586 5.24805 18.8271C5.80436 19.2245 6.48111 19.3165 6.89355 19.2577C7.21313 19.2121 7.52653 19.3762 7.6709 19.665C7.81502 19.9536 7.75844 20.302 7.53027 20.5302L6.53027 21.5302C6.23738 21.8231 5.76262 21.8231 5.46973 21.5302C5.20642 21.2669 5.17954 20.8564 5.38965 20.5634C5.04505 20.4473 4.70008 20.2785 4.37695 20.0478C3.43439 19.3745 2.75 18.2214 2.75 16.4999C2.75 16.0857 3.08579 15.7499 3.5 15.7499ZM17.4697 2.46966C17.7626 2.17677 18.2374 2.17679 18.5303 2.46966C18.7936 2.73297 18.8205 3.14344 18.6104 3.43646C18.9549 3.55258 19.2999 3.72132 19.623 3.95208C20.5656 4.62534 21.25 5.77847 21.25 7.49993C21.25 7.91415 20.9142 8.24993 20.5 8.24993C20.0858 8.24991 19.75 7.91413 19.75 7.49993C19.75 6.2216 19.2676 5.54123 18.752 5.17278C18.1956 4.7754 17.5189 4.68331 17.1064 4.74212C16.7869 4.78777 16.4735 4.62364 16.3291 4.33489C16.185 4.04624 16.2416 3.69782 16.4697 3.46966L17.4697 2.46966Z" fill="#F7A600"/>
</svg>
