<svg width="29" height="28" viewBox="0 0 29 28" fill="none" xmlns="http://www.w3.org/2000/svg">
<g filter="url(#filter0_i_4899_139956)">
<path d="M4.96484 7.46663C4.96484 5.92023 6.21845 4.66663 7.76484 4.66663H10.5648C12.1112 4.66663 13.3648 5.92023 13.3648 7.46663V10.2666C13.3648 11.813 12.1112 13.0666 10.5648 13.0666H7.76484C6.21845 13.0666 4.96484 11.813 4.96484 10.2666V7.46663ZM7.76484 6.53329C7.24938 6.53329 6.83151 6.95116 6.83151 7.46663V10.2666C6.83151 10.7821 7.24938 11.2 7.76484 11.2H10.5648C11.0803 11.2 11.4982 10.7821 11.4982 10.2666V7.46663C11.4982 6.95116 11.0803 6.53329 10.5648 6.53329H7.76484ZM15.2315 7.46663C15.2315 5.92023 16.4851 4.66663 18.0315 4.66663H20.8315C22.3779 4.66663 23.6315 5.92023 23.6315 7.46663V10.2666C23.6315 11.813 22.3779 13.0666 20.8315 13.0666H18.0315C16.4851 13.0666 15.2315 11.813 15.2315 10.2666V7.46663ZM18.0315 6.53329C17.516 6.53329 17.0982 6.95116 17.0982 7.46663V10.2666C17.0982 10.7821 17.516 11.2 18.0315 11.2H20.8315C21.347 11.2 21.7648 10.7821 21.7648 10.2666V7.46663C21.7648 6.95116 21.347 6.53329 20.8315 6.53329H18.0315ZM7.76484 14.9333C6.21845 14.9333 4.96484 16.1869 4.96484 17.7333V20.5333C4.96484 22.0797 6.21845 23.3333 7.76484 23.3333H10.5648C12.1112 23.3333 13.3648 22.0797 13.3648 20.5333V17.7333C13.3648 16.1869 12.1112 14.9333 10.5648 14.9333H7.76484ZM6.83151 17.7333C6.83151 17.2178 7.24938 16.8 7.76484 16.8H10.5648C11.0803 16.8 11.4982 17.2178 11.4982 17.7333V20.5333C11.4982 21.0488 11.0803 21.4666 10.5648 21.4666H7.76484C7.24938 21.4666 6.83151 21.0488 6.83151 20.5333V17.7333ZM15.2315 15.8666C15.2315 15.3512 15.6494 14.9333 16.1648 14.9333H19.4315C19.947 14.9333 20.3648 15.3512 20.3648 15.8666V18.2H21.7648V15.8666C21.7648 15.3512 22.1827 14.9333 22.6982 14.9333C23.2136 14.9333 23.6315 15.3512 23.6315 15.8666V19.1333C23.6315 19.6488 23.2136 20.0666 22.6982 20.0666H19.4315C18.916 20.0666 18.4982 19.6488 18.4982 19.1333V16.8H17.0982V22.4C17.0982 22.9154 16.6803 23.3333 16.1648 23.3333C15.6494 23.3333 15.2315 22.9154 15.2315 22.4V15.8666ZM19.4315 21.4666C18.916 21.4666 18.4982 21.8845 18.4982 22.4C18.4982 22.9154 18.916 23.3333 19.4315 23.3333H22.6982C23.2136 23.3333 23.6315 22.9154 23.6315 22.4C23.6315 21.8845 23.2136 21.4666 22.6982 21.4666H19.4315Z" fill="white"/>
</g>
<defs>
<filter id="filter0_i_4899_139956" x="0.298828" y="0" width="28" height="28.4667" filterUnits="userSpaceOnUse" color-interpolation-filters="sRGB">
<feFlood flood-opacity="0" result="BackgroundImageFix"/>
<feBlend mode="normal" in="SourceGraphic" in2="BackgroundImageFix" result="shape"/>
<feColorMatrix in="SourceAlpha" type="matrix" values="0 0 0 0 0 0 0 0 0 0 0 0 0 0 0 0 0 0 127 0" result="hardAlpha"/>
<feOffset dy="0.466667"/>
<feGaussianBlur stdDeviation="0.466667"/>
<feComposite in2="hardAlpha" operator="arithmetic" k2="-1" k3="1"/>
<feColorMatrix type="matrix" values="0 0 0 0 0 0 0 0 0 0 0 0 0 0 0 0 0 0 0.5 0"/>
<feBlend mode="normal" in2="shape" result="effect1_innerShadow_4899_139956"/>
</filter>
</defs>
</svg>
